<svg width="18px" height="10px" viewBox="0 0 18 10" version="1.1" xmlns="http://www.w3.org/2000/svg" xmlns:xlink="http://www.w3.org/1999/xlink">
    <g stroke="none" stroke-width="1" fill-rule="evenodd" opacity="0.5" transform="translate(-13.000000, -14.000000)" fill="currentColor">
        <path d="M21.2918718,27.706 C21.47944,27.893777 21.7339625,27.9992867 21.9993718,27.9992867 C22.264781,27.9992867 22.5193035,27.893777 22.7068718,27.706 L26.7068718,23.706 C26.9592799,23.4534132 27.0577612,23.0853553 26.9652187,22.74047 C26.8726763,22.3955848 26.6031694,22.1262685 26.2582187,22.03397 C25.9132681,21.9416716 25.5452799,22.0404132 25.2928718,22.293 L22.9998718,24.586 L22.9998718,11 C22.9998718,10.4477153 22.5521565,10 21.9998718,10 C21.447587,10 20.9998718,10.4477153 20.9998718,11 L20.9998718,24.586 L18.7068718,22.292 C18.454285,22.0394132 18.0861318,21.9407668 17.7410918,22.03322 C17.3960519,22.1256732 17.126545,22.3951801 17.0340918,22.74022 C16.9416386,23.08526 17.040285,23.4534132 17.2928718,23.706 L21.2918718,27.705 L21.2918718,27.706 Z" id="Path" transform="translate(21.999695, 18.999643) rotate(90) translate(-21.999695, -18.999643) "></path>
    </g>
</svg>